<?xml version="1.0" encoding="UTF-8" standalone="no"?>
<svg
   xmlns:dc="http://purl.org/dc/elements/1.1/"
   xmlns:cc="http://creativecommons.org/ns#"
   xmlns:rdf="http://www.w3.org/1999/02/22-rdf-syntax-ns#"
   xmlns:svg="http://www.w3.org/2000/svg"
   xmlns="http://www.w3.org/2000/svg"
   xmlns:sodipodi="http://sodipodi.sourceforge.net/DTD/sodipodi-0.dtd"
   xmlns:inkscape="http://www.inkscape.org/namespaces/inkscape"
   sodipodi:docname="dark.svg"
   inkscape:version="1.0 (4035a4fb49, 2020-05-01)"
   id="svg2439"
   version="1.1"
   viewBox="0 0 132.29166 132.29167"
   height="500"
   width="500">
  <defs
     id="defs2433">
    <clipPath
       clipPathUnits="userSpaceOnUse"
       id="clipPath2295">
      <circle
         r="46.340427"
         cy="207.96574"
         cx="154.49086"
         id="circle2297"
         style="opacity:1;fill:#52c0ff;fill-opacity:1;stroke:none;stroke-width:4.71122;stroke-linecap:round;stroke-linejoin:round;stroke-miterlimit:4;stroke-dasharray:none;stroke-opacity:1" />
    </clipPath>
    <filter
       inkscape:collect="always"
       style="color-interpolation-filters:sRGB"
       id="filter2238"
       x="-0.14835796"
       width="1.2967159"
       y="-0.14835796"
       height="1.2967159">
      <feGaussianBlur
         inkscape:collect="always"
         stdDeviation="0.8859583"
         id="feGaussianBlur2240" />
    </filter>
  </defs>
  <sodipodi:namedview
     inkscape:window-maximized="0"
     inkscape:window-y="0"
     inkscape:window-x="78"
     inkscape:window-height="1040"
     inkscape:window-width="1274"
     units="px"
     showgrid="false"
     inkscape:document-rotation="0"
     inkscape:current-layer="layer1"
     inkscape:document-units="mm"
     inkscape:cy="560"
     inkscape:cx="400"
     inkscape:zoom="0.28563218"
     inkscape:pageshadow="2"
     inkscape:pageopacity="0.0"
     borderopacity="1.0"
     bordercolor="#666666"
     pagecolor="#ffffff"
     id="base" />
  <metadata
     id="metadata2436">
    <rdf:RDF>
      <cc:Work
         rdf:about="">
        <dc:format>image/svg+xml</dc:format>
        <dc:type
           rdf:resource="http://purl.org/dc/dcmitype/StillImage" />
        <dc:title></dc:title>
      </cc:Work>
    </rdf:RDF>
  </metadata>
  <g
     id="layer1"
     inkscape:groupmode="layer"
     inkscape:label="Layer 1">
    <g
       id="g2431"
       transform="translate(-88.345027,-141.81991)">
      <g
         clip-path="url(#clipPath2295)"
         id="g2293">
        <circle
           r="46.340427"
           cy="207.96574"
           cx="154.53627"
           id="circle1322"
           style="opacity:1;fill:#0f0044;fill-opacity:1;stroke:none;stroke-width:4.71123;stroke-linecap:round;stroke-linejoin:round;stroke-miterlimit:4;stroke-dasharray:none;stroke-opacity:1" />
        <path
           style="fill:#4e2200;fill-opacity:1;stroke:none;stroke-width:0.264583px;stroke-linecap:butt;stroke-linejoin:miter;stroke-opacity:1"
           d="m 107.57598,222.44842 c 0,0 40.90428,10.2364 46.93753,10.19066 5.98684,-0.0454 25.36949,-5.17331 25.36949,-5.17331 0,0 13.06962,-7.73483 13.25671,-9.9799 0.18708,-2.24506 2.55503,-12.2496 2.55503,-12.2496 l 6.5708,-5.08544 -4.43533,6.12658 -1.98437,13.63672 c 0,0 -8.2413,6.05688 -8.98966,7.17941 -0.74835,1.12254 -15.29587,6.5802 -15.29587,6.5802 l 14.03165,0.56127 7.48354,8.60608 -10.10084,-5.79975 -11.60144,-0.46302 -8.94816,-1.15269 -18.1797,-0.25518 -25.63115,-7.10937 h -10.47696 z"
           id="path1324"
           sodipodi:nodetypes="cscsccccscccccccccc" />
        <g
           id="g1318"
           transform="matrix(1.4125935,0,0,1.4125935,-99.927267,29.755782)">
          <path
             sodipodi:nodetypes="csccssc"
             id="path902"
             d="m 170.87031,113.17381 c 0,0 -7.89266,6.17686 -4.66696,15.92258 3.22569,9.74571 8.71623,12.14782 8.71623,12.14782 l 10.50067,0.4118 c 0,0 5.87131,-4.99438 7.96128,-10.43204 2.15796,-5.61456 2.74527,-11.46151 -3.98064,-18.39332 -6.72591,-6.93181 -18.53058,0.34316 -18.53058,0.34316 z"
             style="fill:#763e03;fill-opacity:1;stroke:none;stroke-width:0.264583px;stroke-linecap:butt;stroke-linejoin:miter;stroke-opacity:1" />
          <path
             sodipodi:nodetypes="cscccccsc"
             d="m 170.60553,106.03487 c -0.3723,-0.0128 -0.44644,0.24565 -0.13849,0.97203 0.57121,1.34738 0.84857,1.83118 2.03398,3.11093 0,0 -10.00389,10.12494 2.41846,31.12626 0,0 2.98344,1.84251 5.24829,1.56799 0.1536,-11.86077 -0.0298,-24.05975 -0.0328,-36.04395 -1.66297,0.035 -3.47369,0.0977 -4.73158,0.93121 -2.29107,-0.62784 -4.0874,-1.64009 -4.79815,-1.6645 z"
             style="fill:#ed8535;fill-opacity:1;stroke:none;stroke-width:0.264583px;stroke-linecap:butt;stroke-linejoin:miter;stroke-opacity:1"
             id="path930" />
          <path
             sodipodi:nodetypes="csccccccc"
             id="path935"
             style="fill:#db6a14;fill-opacity:1;stroke:none;stroke-width:0.264583px;stroke-linecap:butt;stroke-linejoin:miter;stroke-opacity:1"
             d="m 189.6824,106.03491 c 0.3723,-0.0128 0.44644,0.24565 0.1385,0.97203 -0.57122,1.34738 -0.84857,1.83118 -2.03399,3.11093 0,0 10.0039,10.45952 -2.41846,31.46084 0,0 -3.02076,1.50789 -5.28561,1.23337 -0.15951,-11.8608 -0.0844,-24.06575 -0.0874,-36.04999 1.65439,-0.004 3.6306,0.10377 4.8885,0.93728 2.29107,-0.62784 4.0874,-1.64009 4.79815,-1.6645 z" />
          <g
             transform="translate(95.993032)"
             id="g916">
            <ellipse
               ry="4.8772645"
               rx="4.9564595"
               cy="115.81687"
               cx="79.813995"
               id="ellipse910"
               style="fill:#ffffff;fill-opacity:1;stroke:none;stroke-width:26.1211;stroke-linecap:round;stroke-linejoin:round;stroke-miterlimit:4;stroke-dasharray:none;stroke-opacity:1" />
            <ellipse
               style="fill:#dca500;fill-opacity:1;stroke:none;stroke-width:17.5644;stroke-linecap:round;stroke-linejoin:round;stroke-miterlimit:4;stroke-dasharray:none;stroke-opacity:1"
               id="circle908"
               cx="79.783325"
               cy="115.82899"
               rx="3.30004"
               ry="3.3121724" />
            <circle
               r="1.8805375"
               cy="115.78046"
               cx="79.819717"
               id="circle906"
               style="fill:#000000;fill-opacity:1;stroke:none;stroke-width:9.99076;stroke-linecap:round;stroke-linejoin:round;stroke-miterlimit:4;stroke-dasharray:none;stroke-opacity:1" />
            <circle
               style="fill:#ffffff;fill-opacity:1;stroke:none;stroke-width:3.48065;stroke-linecap:round;stroke-linejoin:round;stroke-miterlimit:4;stroke-dasharray:none;stroke-opacity:1"
               id="path904"
               cx="79.055374"
               cy="115.1617"
               r="0.655155" />
          </g>
          <ellipse
             ry="4.8772645"
             rx="4.9564595"
             cy="115.7926"
             cx="184.44537"
             id="ellipse918"
             style="fill:#ffffff;fill-opacity:1;stroke:none;stroke-width:26.1211;stroke-linecap:round;stroke-linejoin:round;stroke-miterlimit:4;stroke-dasharray:none;stroke-opacity:1" />
          <ellipse
             style="fill:#dca500;fill-opacity:1;stroke:none;stroke-width:17.5644;stroke-linecap:round;stroke-linejoin:round;stroke-miterlimit:4;stroke-dasharray:none;stroke-opacity:1"
             id="ellipse920"
             cx="184.48749"
             cy="115.78046"
             rx="3.30004"
             ry="3.3121724" />
          <circle
             r="1.8805375"
             cy="115.73193"
             cx="184.52388"
             id="circle922"
             style="fill:#000000;fill-opacity:1;stroke:none;stroke-width:9.99076;stroke-linecap:round;stroke-linejoin:round;stroke-miterlimit:4;stroke-dasharray:none;stroke-opacity:1" />
          <circle
             style="fill:#ffffff;fill-opacity:1;stroke:none;stroke-width:3.48065;stroke-linecap:round;stroke-linejoin:round;stroke-miterlimit:4;stroke-dasharray:none;stroke-opacity:1"
             id="circle924"
             cx="183.75954"
             cy="115.11317"
             r="0.655155" />
          <path
             sodipodi:nodetypes="cccscc"
             d="m 180.21264,119.11676 c -0.0296,0.0161 -0.0474,0.0237 -0.0765,0.0393 l 0.0212,6.21203 c 0.012,-0.0213 1.90955,-3.34275 2.17816,-4.10363 0.26946,-0.76333 -0.4451,-1.33206 -2.12287,-2.14767 z"
             style="fill:#482602;fill-opacity:1;stroke:none;stroke-width:0.264583px;stroke-linecap:butt;stroke-linejoin:miter;stroke-opacity:1"
             id="path928" />
          <g
             transform="translate(95.993032)"
             style="fill:#f9c250;fill-opacity:1"
             id="g950">
            <rect
               style="fill:#f9c250;fill-opacity:1;stroke:none;stroke-width:3.09649;stroke-linecap:round;stroke-linejoin:round;stroke-miterlimit:4;stroke-dasharray:none;stroke-opacity:1"
               id="rect941"
               width="1.722815"
               height="4.8166027"
               x="78.291023"
               y="141.46497"
               ry="0.93950218" />
            <rect
               ry="0.93950218"
               y="141.46497"
               x="80.01384"
               height="4.8166027"
               width="1.722815"
               id="rect943"
               style="fill:#f9c250;fill-opacity:1;stroke:none;stroke-width:3.09649;stroke-linecap:round;stroke-linejoin:round;stroke-miterlimit:4;stroke-dasharray:none;stroke-opacity:1" />
            <rect
               style="fill:#f9c250;fill-opacity:1;stroke:none;stroke-width:3.09649;stroke-linecap:round;stroke-linejoin:round;stroke-miterlimit:4;stroke-dasharray:none;stroke-opacity:1"
               id="rect945"
               width="1.722815"
               height="4.8166027"
               x="81.736656"
               y="141.46497"
               ry="0.93950218" />
          </g>
          <g
             style="fill:#f9c250;fill-opacity:1"
             transform="translate(102.95709)"
             id="g958">
            <rect
               ry="0.93950218"
               y="141.46497"
               x="78.291023"
               height="4.8166027"
               width="1.722815"
               id="rect952"
               style="fill:#f9c250;fill-opacity:1;stroke:none;stroke-width:3.09649;stroke-linecap:round;stroke-linejoin:round;stroke-miterlimit:4;stroke-dasharray:none;stroke-opacity:1" />
            <rect
               style="fill:#f9c250;fill-opacity:1;stroke:none;stroke-width:3.09649;stroke-linecap:round;stroke-linejoin:round;stroke-miterlimit:4;stroke-dasharray:none;stroke-opacity:1"
               id="rect954"
               width="1.722815"
               height="4.8166027"
               x="80.01384"
               y="141.46497"
               ry="0.93950218" />
            <rect
               ry="0.93950218"
               y="141.46497"
               x="81.736656"
               height="4.8166027"
               width="1.722815"
               id="rect956"
               style="fill:#f9c250;fill-opacity:1;stroke:none;stroke-width:3.09649;stroke-linecap:round;stroke-linejoin:round;stroke-miterlimit:4;stroke-dasharray:none;stroke-opacity:1" />
          </g>
          <g
             transform="translate(64.545591)"
             id="g1175">
            <path
               style="fill:#8b4803;fill-opacity:1;stroke:none;stroke-width:0.264583px;stroke-linecap:butt;stroke-linejoin:miter;stroke-opacity:1"
               d="m 113.20501,124.92039 c -1.66662,2.22838 -3.29734,2.20347 -4.84614,-0.0299 0.13539,1.60697 1.18755,2.72274 2.39955,2.7319 1.21499,0.009 2.23741,-1.09909 2.4466,-2.70199 z"
               id="path986"
               sodipodi:nodetypes="ccac" />
            <path
               sodipodi:nodetypes="ccac"
               id="path988"
               d="m 118.0264,124.92039 c -1.66663,2.22838 -3.29735,2.20347 -4.84615,-0.0299 0.13539,1.60697 1.18756,2.72274 2.39955,2.7319 1.21499,0.009 2.23741,-1.09909 2.4466,-2.70199 z"
               style="fill:#8b4803;fill-opacity:1;stroke:none;stroke-width:0.264583px;stroke-linecap:butt;stroke-linejoin:miter;stroke-opacity:1" />
            <path
               style="fill:#8b4803;fill-opacity:1;stroke:none;stroke-width:0.264583px;stroke-linecap:butt;stroke-linejoin:miter;stroke-opacity:1"
               d="m 122.81347,124.92039 c -1.66663,2.22838 -3.29735,2.20347 -4.84615,-0.0299 0.13539,1.60697 1.18755,2.72274 2.39955,2.7319 1.21499,0.009 2.23741,-1.09909 2.4466,-2.70199 z"
               id="path990"
               sodipodi:nodetypes="ccac" />
            <path
               sodipodi:nodetypes="ccac"
               id="path992"
               d="m 110.75463,127.97892 c -1.66662,2.22838 -3.29734,2.20347 -4.84614,-0.0299 0.13539,1.60697 1.18755,2.72274 2.39955,2.7319 1.21499,0.009 2.2374,-1.09909 2.44659,-2.70199 z"
               style="fill:#8b4803;fill-opacity:1;stroke:none;stroke-width:0.264583px;stroke-linecap:butt;stroke-linejoin:miter;stroke-opacity:1" />
            <path
               style="fill:#8b4803;fill-opacity:1;stroke:none;stroke-width:0.264583px;stroke-linecap:butt;stroke-linejoin:miter;stroke-opacity:1"
               d="m 115.60078,128.00883 c -1.66663,2.22838 -3.29735,2.20347 -4.84615,-0.0299 0.13539,1.60697 1.18756,2.72274 2.39955,2.7319 1.21499,0.009 2.23741,-1.09909 2.4466,-2.70199 z"
               id="path994"
               sodipodi:nodetypes="ccac" />
            <path
               sodipodi:nodetypes="ccac"
               id="path996"
               d="m 120.42216,128.04314 c -1.66663,2.22838 -3.29734,2.20347 -4.84614,-0.0299 0.13539,1.60697 1.18755,2.72274 2.39954,2.7319 1.21499,0.009 2.23741,-1.09909 2.4466,-2.70199 z"
               style="fill:#8b4803;fill-opacity:1;stroke:none;stroke-width:0.264583px;stroke-linecap:butt;stroke-linejoin:miter;stroke-opacity:1" />
            <path
               style="fill:#8b4803;fill-opacity:1;stroke:none;stroke-width:0.264583px;stroke-linecap:butt;stroke-linejoin:miter;stroke-opacity:1"
               d="m 113.19866,131.25167 c -1.66662,2.22838 -3.29734,2.20347 -4.84614,-0.0299 0.13539,1.60697 1.18755,2.72274 2.39955,2.7319 1.21499,0.009 2.2374,-1.09909 2.44659,-2.70199 z"
               id="path998"
               sodipodi:nodetypes="ccac" />
            <path
               sodipodi:nodetypes="ccac"
               id="path1000"
               d="m 118.04481,131.28158 c -1.66663,2.22838 -3.29735,2.20347 -4.84615,-0.0299 0.13539,1.60697 1.18756,2.72274 2.39955,2.7319 1.21499,0.009 2.23741,-1.09909 2.4466,-2.70199 z"
               style="fill:#8b4803;fill-opacity:1;stroke:none;stroke-width:0.264583px;stroke-linecap:butt;stroke-linejoin:miter;stroke-opacity:1" />
            <path
               style="fill:#8b4803;fill-opacity:1;stroke:none;stroke-width:0.264583px;stroke-linecap:butt;stroke-linejoin:miter;stroke-opacity:1"
               d="m 122.89095,131.31149 c -1.66663,2.22838 -3.29734,2.20347 -4.84614,-0.0299 0.13539,1.60697 1.18755,2.72274 2.39954,2.7319 1.21499,0.009 2.23741,-1.09909 2.4466,-2.70199 z"
               id="path1002"
               sodipodi:nodetypes="ccac" />
            <path
               sodipodi:nodetypes="ccac"
               id="path1004"
               d="m 115.56646,134.30578 c -1.66663,2.22838 -3.29734,2.20347 -4.84614,-0.0299 0.13539,1.60697 1.18755,2.72274 2.39954,2.7319 1.21499,0.009 2.23741,-1.09909 2.4466,-2.70199 z"
               style="fill:#8b4803;fill-opacity:1;stroke:none;stroke-width:0.264583px;stroke-linecap:butt;stroke-linejoin:miter;stroke-opacity:1" />
            <path
               style="fill:#8b4803;fill-opacity:1;stroke:none;stroke-width:0.264583px;stroke-linecap:butt;stroke-linejoin:miter;stroke-opacity:1"
               d="m 120.4126,134.33569 c -1.66662,2.22838 -3.29734,2.20347 -4.84614,-0.0299 0.13539,1.60697 1.18755,2.72274 2.39955,2.7319 1.21499,0.009 2.2374,-1.09909 2.44659,-2.70199 z"
               id="path1006"
               sodipodi:nodetypes="ccac" />
            <path
               sodipodi:nodetypes="ccac"
               id="path1008"
               d="m 118.00289,137.34274 c -1.66663,2.22838 -3.29734,2.20347 -4.84614,-0.0299 0.13539,1.60697 1.18755,2.72274 2.39954,2.7319 1.21499,0.009 2.23741,-1.09909 2.4466,-2.70199 z"
               style="fill:#8b4803;fill-opacity:1;stroke:none;stroke-width:0.264583px;stroke-linecap:butt;stroke-linejoin:miter;stroke-opacity:1" />
            <path
               style="fill:#8b4803;fill-opacity:1;stroke:none;stroke-width:0.264583px;stroke-linecap:butt;stroke-linejoin:miter;stroke-opacity:1"
               d="m 125.45704,128.03873 c -1.66663,2.22838 -3.29734,2.20347 -4.84614,-0.0299 0.13539,1.60697 1.18755,2.72274 2.39954,2.7319 1.21499,0.009 2.23741,-1.09909 2.4466,-2.70199 z"
               id="path1010"
               sodipodi:nodetypes="ccac" />
          </g>
          <path
             sodipodi:nodetypes="sccsss"
             id="path1180"
             style="fill:#723c03;fill-opacity:1;stroke:none;stroke-width:0.264583px;stroke-linecap:butt;stroke-linejoin:miter;stroke-opacity:1"
             d="m 180.05763,119.11677 c 0.0296,0.0161 0.0618,0.0257 0.0909,0.0413 l 0.01,6.20996 c -0.012,-0.0213 -1.95504,-3.34275 -2.22364,-4.10363 -0.26946,-0.76333 0.4451,-1.33206 2.12286,-2.14767 z" />
        </g>
      </g>
      <g
         transform="translate(2.3492319)"
         id="g2248">
        <circle
           transform="matrix(0.92487675,0,0,0.92487675,109.22413,12.958929)"
           r="7.1661134"
           cy="173.55214"
           cx="82.759331"
           id="circle2242"
           style="opacity:0.664516;fill:#d1f0fc;fill-opacity:1;stroke:none;stroke-width:2.27139;stroke-linecap:round;stroke-linejoin:round;stroke-miterlimit:4;stroke-dasharray:none;stroke-opacity:1;filter:url(#filter2238)" />
        <circle
           style="opacity:1;fill:#b9eaff;fill-opacity:1;stroke:none;stroke-width:1.9569;stroke-linecap:round;stroke-linejoin:round;stroke-miterlimit:4;stroke-dasharray:none;stroke-opacity:1"
           id="path1326"
           cx="185.40486"
           cy="173.61827"
           r="6.1739259" />
      </g>
    </g>
  </g>
</svg>
