<?xml version="1.0" encoding="UTF-8" standalone="no"?>
<svg
   xmlns:dc="http://purl.org/dc/elements/1.1/"
   xmlns:cc="http://creativecommons.org/ns#"
   xmlns:rdf="http://www.w3.org/1999/02/22-rdf-syntax-ns#"
   xmlns:svg="http://www.w3.org/2000/svg"
   xmlns="http://www.w3.org/2000/svg"
   xmlns:sodipodi="http://sodipodi.sourceforge.net/DTD/sodipodi-0.dtd"
   xmlns:inkscape="http://www.inkscape.org/namespaces/inkscape"
   sodipodi:docname="light.svg"
   inkscape:version="1.0 (4035a4fb49, 2020-05-01)"
   id="svg2439"
   version="1.1"
   viewBox="0 0 132.29166 132.29167"
   height="500"
   width="500">
  <defs
     id="defs2433">
    <clipPath
       clipPathUnits="userSpaceOnUse"
       id="clipPath2295">
      <circle
         r="46.340427"
         cy="207.96574"
         cx="154.49086"
         id="circle2297"
         style="opacity:1;fill:#52c0ff;fill-opacity:1;stroke:none;stroke-width:4.71122;stroke-linecap:round;stroke-linejoin:round;stroke-miterlimit:4;stroke-dasharray:none;stroke-opacity:1" />
    </clipPath>
    <clipPath
       clipPathUnits="userSpaceOnUse"
       id="clipPath2384">
      <circle
         r="46.340427"
         cy="207.96574"
         cx="53.204079"
         id="circle2386"
         style="opacity:1;fill:#000000;fill-opacity:1;stroke:none;stroke-width:4.71122;stroke-linecap:round;stroke-linejoin:round;stroke-miterlimit:4;stroke-dasharray:none;stroke-opacity:1" />
    </clipPath>
    <filter
       inkscape:collect="always"
       style="color-interpolation-filters:sRGB"
       id="filter2238"
       x="-0.14835796"
       width="1.2967159"
       y="-0.14835796"
       height="1.2967159">
      <feGaussianBlur
         inkscape:collect="always"
         stdDeviation="0.8859583"
         id="feGaussianBlur2240" />
    </filter>
  </defs>
  <sodipodi:namedview
     inkscape:window-maximized="0"
     inkscape:window-y="0"
     inkscape:window-x="78"
     inkscape:window-height="1040"
     inkscape:window-width="1274"
     units="px"
     showgrid="false"
     inkscape:document-rotation="0"
     inkscape:current-layer="layer1"
     inkscape:document-units="mm"
     inkscape:cy="560"
     inkscape:cx="400"
     inkscape:zoom="0.28563218"
     inkscape:pageshadow="2"
     inkscape:pageopacity="0.0"
     borderopacity="1.0"
     bordercolor="#666666"
     pagecolor="#ffffff"
     id="base" />
  <metadata
     id="metadata2436">
    <rdf:RDF>
      <cc:Work
         rdf:about="">
        <dc:format>image/svg+xml</dc:format>
        <dc:type
           rdf:resource="http://purl.org/dc/dcmitype/StillImage" />
        <dc:title></dc:title>
      </cc:Work>
    </rdf:RDF>
  </metadata>
  <g
     id="layer1"
     inkscape:groupmode="layer"
     inkscape:label="Layer 1">
    <g
       transform="translate(-88.273215,-141.81991)"
       id="g3189">
      <g
         transform="translate(101.21497)"
         clip-path="url(#clipPath2384)"
         id="g2382">
        <circle
           style="fill:#52c0ff;fill-opacity:1;stroke:none;stroke-width:4.71123;stroke-linecap:round;stroke-linejoin:round;stroke-miterlimit:4;stroke-dasharray:none;stroke-opacity:1"
           id="path1320"
           cx="53.134216"
           cy="207.96574"
           r="46.340427" />
        <path
           sodipodi:nodetypes="cscsccccscccccccccc"
           id="path1330"
           d="m 100.30222,225.44184 c 0,0 -40.904281,10.2364 -46.937531,10.19066 -5.98684,-0.0454 -25.36949,-5.17331 -25.36949,-5.17331 0,0 -13.06962,-7.73483 -13.25671,-9.9799 -0.18708,-2.24506 -2.55503,-12.2496 -2.55503,-12.2496 l -6.5708033,-5.08544 4.4353333,6.12658 1.98437,13.63672 c 0,0 8.2413,6.05688 8.98966,7.17941 0.74835,1.12254 15.29587,6.5802 15.29587,6.5802 l -14.03165,0.56127 -7.48354,8.60608 10.10084,-5.79975 11.60144,-0.46302 8.94816,-1.15269 18.1797,-0.25518 25.63115,-7.10937 h 10.47696 z"
           style="fill:#6f3f00;fill-opacity:1;stroke:none;stroke-width:0.264583px;stroke-linecap:butt;stroke-linejoin:miter;stroke-opacity:1" />
        <g
           id="g1280"
           transform="matrix(1.4125935,0,0,1.4125935,-158.03693,33.98385)">
          <path
             sodipodi:nodetypes="ssccsscscss"
             transform="scale(0.26458333)"
             d="m 574.27344,380.44531 c -0.25939,0.3891 -3.56668,4.40909 -9.92188,8.10547 -6.3552,3.69638 -4.16898,10.75051 -4.16898,10.75051 l 5.59581,-0.82876 c 0.14995,0.0376 10.89659,3.32643 9.6085,1.65195 -1.29698,-1.68609 1.09214,-3.27259 4.52913,-7.16354 3.43698,-3.89091 1.16601,-7.65235 1.16601,-7.65235 0,0 -2.74301,6.91593 -8.88281,8.04102 -2.48421,0.45523 -4.03732,1.58313 -4.9961,2.66601 0.39401,-1.34526 1.49287,-3.17931 4.28126,-5.32421 5.90124,-4.53941 3.04833,-10.6352 2.78906,-10.2461 z"
             style="fill:#ff8b21;fill-opacity:1;stroke:none;stroke-width:0.999999px;stroke-linecap:butt;stroke-linejoin:miter;stroke-opacity:1"
             id="path1057" />
          <path
             sodipodi:nodetypes="csccsscc"
             id="path1079"
             d="m 143.03821,116.0328 c -0.27452,0 -7.23321,5.51683 -6.2798,12.21645 1.12054,7.87409 6.38275,10.70656 6.38275,10.70656 l 11.49583,0.96085 c 0,0 2.608,-0.58337 4.52969,-3.77475 1.98071,-3.28939 4.42675,-9.43687 2.3678,-14.00088 -2.03399,-4.50869 -5.73075,-5.83371 -5.73075,-5.83371 z"
             style="fill:#ff8b21;fill-opacity:1;stroke:none;stroke-width:0.264583px;stroke-linecap:butt;stroke-linejoin:miter;stroke-opacity:1" />
          <path
             sodipodi:nodetypes="ccasssascc"
             id="path1053"
             d="m 149.6955,105.42919 -0.0686,37.12979 c 0,0 4.56049,-0.96017 6.14254,-2.50506 2.99066,-2.9204 4.52971,-6.24549 5.01013,-11.49582 0.4753,-5.19431 -1.30401,-8.30445 -2.88254,-10.53498 -1.57853,-2.23053 -0.0114,-4.99418 -0.89638,-7.30512 -0.52782,-1.37838 -1.40131,-2.69308 -2.57369,-3.57891 -1.33798,-1.01096 -2.98254,-1.68749 -4.73143,-1.7099 v 0 z"
             style="fill:#f0b11d;fill-opacity:1;stroke:none;stroke-width:0.264583px;stroke-linecap:butt;stroke-linejoin:miter;stroke-opacity:1" />
          <path
             style="fill:#ffd125;fill-opacity:1;stroke:none;stroke-width:0.264583px;stroke-linecap:butt;stroke-linejoin:miter;stroke-opacity:1"
             d="m 149.6955,105.42919 0.0686,37.12979 c 0,0 -4.56413,-0.95645 -6.14255,-2.50506 -3.0577,-2.99996 -4.87436,-6.59265 -5.07875,-11.80467 -0.2059,-5.25032 1.37264,-7.9956 2.95117,-10.22613 1.57853,-2.23053 0.0114,-4.99418 0.89637,-7.30512 0.52783,-1.37838 1.40132,-2.69308 2.5737,-3.57891 1.33798,-1.01096 2.98254,-1.68749 4.73143,-1.7099 v 0 z"
             id="path1055"
             sodipodi:nodetypes="ccasssascc" />
          <ellipse
             ry="1.6300049"
             rx="1.5573294"
             cy="111.55456"
             cx="145.17891"
             id="path1061"
             style="fill:#ffffff;fill-opacity:1;stroke:none;stroke-width:3.58822;stroke-linecap:round;stroke-linejoin:round;stroke-miterlimit:4;stroke-dasharray:none;stroke-opacity:1" />
          <ellipse
             style="fill:#ffffff;fill-opacity:1;stroke:none;stroke-width:3.58822;stroke-linecap:round;stroke-linejoin:round;stroke-miterlimit:4;stroke-dasharray:none;stroke-opacity:1"
             id="ellipse1065"
             cx="154.46136"
             cy="111.46877"
             rx="1.5573294"
             ry="1.6300049" />
          <circle
             style="fill:#e8d86f;fill-opacity:1;stroke:none;stroke-width:2.36534;stroke-linecap:round;stroke-linejoin:round;stroke-miterlimit:4;stroke-dasharray:none;stroke-opacity:1"
             id="circle1073"
             cx="154.30312"
             cy="111.69111"
             r="1.0502641" />
          <circle
             r="0.62867498"
             cy="111.70264"
             cx="154.33395"
             id="ellipse1067"
             style="fill:#000000;fill-opacity:1;stroke:none;stroke-width:1.41586;stroke-linecap:round;stroke-linejoin:round;stroke-miterlimit:4;stroke-dasharray:none;stroke-opacity:1" />
          <circle
             r="1.0502641"
             cy="111.73962"
             cx="145.32507"
             id="circle1071"
             style="fill:#e8d86f;fill-opacity:1;stroke:none;stroke-width:2.36534;stroke-linecap:round;stroke-linejoin:round;stroke-miterlimit:4;stroke-dasharray:none;stroke-opacity:1" />
          <circle
             style="fill:#000000;fill-opacity:1;stroke:none;stroke-width:1.38962;stroke-linecap:round;stroke-linejoin:round;stroke-miterlimit:4;stroke-dasharray:none;stroke-opacity:1"
             id="circle1069"
             cx="145.36514"
             cy="111.79834"
             r="0.61702591" />
          <ellipse
             ry="0.1286846"
             rx="0.12653986"
             cy="111.95778"
             cx="145.58832"
             id="path1075"
             style="fill:#ffffff;fill-opacity:1;stroke:none;stroke-width:2.965;stroke-linecap:round;stroke-linejoin:round;stroke-miterlimit:4;stroke-dasharray:none;stroke-opacity:1" />
          <ellipse
             style="fill:#ffffff;fill-opacity:1;stroke:none;stroke-width:2.965;stroke-linecap:round;stroke-linejoin:round;stroke-miterlimit:4;stroke-dasharray:none;stroke-opacity:1"
             id="ellipse1077"
             cx="154.47638"
             cy="111.92738"
             rx="0.12653986"
             ry="0.1286846" />
          <path
             sodipodi:nodetypes="cscccc"
             transform="scale(0.26458333)"
             d="m 565.71289,424.67188 c -5.32679,3.02222 -11.67267,9.33716 -11.21875,13.29296 0.45396,3.95577 10.63477,31.77735 10.63477,31.77735 0,0 0.24425,1.13319 0.76171,1.04688 l -0.0195,-46.04493 c -0.0522,-0.0217 -0.10622,-0.0519 -0.1582,-0.0723 z"
             style="fill:#d48006;fill-opacity:1;stroke:none;stroke-width:0.999999px;stroke-linecap:butt;stroke-linejoin:miter;stroke-opacity:1"
             id="path1081" />
          <g
             style="fill:#ffa552;fill-opacity:1"
             transform="translate(6.964055,0.36397497)"
             id="g1125">
            <g
               transform="translate(65.321382,-0.97060002)"
               style="fill:#ffa552;fill-opacity:1"
               id="g1105">
              <rect
                 style="fill:#ffa552;fill-opacity:1;stroke:none;stroke-width:3.09649;stroke-linecap:round;stroke-linejoin:round;stroke-miterlimit:4;stroke-dasharray:none;stroke-opacity:1"
                 id="rect1099"
                 width="1.722815"
                 height="4.8166027"
                 x="78.291023"
                 y="141.46497"
                 ry="0.93950218" />
              <rect
                 ry="0.93950218"
                 y="141.46497"
                 x="80.01384"
                 height="4.8166027"
                 width="1.722815"
                 id="rect1101"
                 style="fill:#ffa552;fill-opacity:1;stroke:none;stroke-width:3.09649;stroke-linecap:round;stroke-linejoin:round;stroke-miterlimit:4;stroke-dasharray:none;stroke-opacity:1" />
              <rect
                 style="fill:#ffa552;fill-opacity:1;stroke:none;stroke-width:3.09649;stroke-linecap:round;stroke-linejoin:round;stroke-miterlimit:4;stroke-dasharray:none;stroke-opacity:1"
                 id="rect1103"
                 width="1.722815"
                 height="4.8166027"
                 x="81.736656"
                 y="141.46497"
                 ry="0.93950218" />
            </g>
          </g>
          <g
             style="fill:#ffa552;fill-opacity:1"
             transform="translate(-6.8669951,-0.02426503)"
             id="g1119">
            <g
               style="fill:#ffa552;fill-opacity:1"
               transform="translate(72.285437,-0.58236002)"
               id="g1113">
              <rect
                 ry="0.93950218"
                 y="141.46497"
                 x="78.291023"
                 height="4.8166027"
                 width="1.722815"
                 id="rect1107"
                 style="fill:#ffa552;fill-opacity:1;stroke:none;stroke-width:3.09649;stroke-linecap:round;stroke-linejoin:round;stroke-miterlimit:4;stroke-dasharray:none;stroke-opacity:1" />
              <rect
                 style="fill:#ffa552;fill-opacity:1;stroke:none;stroke-width:3.09649;stroke-linecap:round;stroke-linejoin:round;stroke-miterlimit:4;stroke-dasharray:none;stroke-opacity:1"
                 id="rect1109"
                 width="1.722815"
                 height="4.8166027"
                 x="80.01384"
                 y="141.46497"
                 ry="0.93950218" />
              <rect
                 ry="0.93950218"
                 y="141.46497"
                 x="81.736656"
                 height="4.8166027"
                 width="1.722815"
                 id="rect1111"
                 style="fill:#ffa552;fill-opacity:1;stroke:none;stroke-width:3.09649;stroke-linecap:round;stroke-linejoin:round;stroke-miterlimit:4;stroke-dasharray:none;stroke-opacity:1" />
            </g>
          </g>
          <path
             sodipodi:nodetypes="csccccc"
             id="path1145"
             style="fill:#bf7305;fill-opacity:1;stroke:none;stroke-width:0.264583px;stroke-linecap:butt;stroke-linejoin:miter;stroke-opacity:1"
             d="m 149.76192,112.3611 c 1.40938,0.79963 3.08839,2.47046 2.9683,3.5171 -0.12012,1.04663 -2.81379,8.40775 -2.81379,8.40775 0,0 -0.0646,0.29879 -0.20154,0.27596 l -0.004,-12.18169 c 0.0138,-0.006 0.0374,-0.0137 0.0512,-0.0191 z" />
        </g>
      </g>
      <g
         transform="translate(105.02215,-0.01471345)"
         id="g2252">
        <circle
           style="opacity:0.664516;fill:#ffffff;fill-opacity:1;stroke:none;stroke-width:2.27139;stroke-linecap:round;stroke-linejoin:round;stroke-miterlimit:4;stroke-dasharray:none;stroke-opacity:1;filter:url(#filter2238)"
           id="circle1332"
           cx="82.759331"
           cy="173.55214"
           r="7.1661134"
           transform="matrix(0.92487675,0,0,0.92487675,6.1382782,12.958929)" />
        <circle
           r="6.1739259"
           cy="173.61827"
           cx="82.693184"
           id="circle1328"
           style="opacity:1;fill:#ffe852;fill-opacity:1;stroke:none;stroke-width:1.9569;stroke-linecap:round;stroke-linejoin:round;stroke-miterlimit:4;stroke-dasharray:none;stroke-opacity:1" />
      </g>
    </g>
  </g>
</svg>
